<?xml version="1.0" encoding="UTF-8"?>
<!-- Generator: Adobe Illustrator 21.0.2, SVG Export Plug-In . SVG Version: 6.00 Build 0)  -->
<svg version="1.1" id="Ebene_1" xmlns="http://www.w3.org/2000/svg" xmlns:xlink="http://www.w3.org/1999/xlink" x="0px" y="0px" viewBox="0 0 400 400" style="enable-background:new 0 0 400 400;" xml:space="preserve">
<style type="text/css">
	.st0{fill:#009BE2;}
</style>
<g>
	<path class="st0" d="M274.3,199.9c-21.4-13.6-45.3-20.6-71.7-20.1c-29-0.5-54.9,7.4-77.9,22.9c23.1-15.4,48.9-23.4,77.9-22.9   C228.9,179.3,252.8,186.3,274.3,199.9z"/>
	<path class="st0" d="M274.3,199.9c3.3,2.1,6.5,4.3,9.7,6.8C280.8,204.2,277.5,202,274.3,199.9z"/>
	<path class="st0" d="M359.7,199.9C309.6,140.6,259.3,81.5,209.4,22c-7-8.4-11.6-9-18.7-0.2c-15.6,19.3-32,38-51.9,61.6   c0.3-15.1-4.9-18.2-14.8-17.9c-38.9,1.1-31.4-4.3-32.2,32.1c-0.2,8.1-0.7,16.3,0.1,24.3c1.3,12.6-3.3,22-11.7,31.1   c-14.1,15.3-27.2,31.6-40.6,47.6c-2.5,3-6.7,6-5.1,10.3c1.7,4.4,6.8,4.4,10.7,3.8c15.3-2.5,16.6,6,16.5,18.2   c-0.5,46.3,0.1,92.7-0.4,139c-0.1,11.3,3.7,15.1,15,15.1c82.3-0.3,164.5-0.4,246.8,0c12.4,0.1,15.8-4.3,15.7-16.2   c-0.5-46.9,0-93.9-0.4-140.8c-0.1-10.3,1.6-16.9,14-15.4c4.4,0.5,10.2,1.6,12.7-3.3C367.9,206.3,362.5,203.2,359.7,199.9z    M197.5,337.4c-13.4-0.4-24.2-11.2-24.5-24.3c-0.3-13.8,12.5-26.9,26.5-26.9c13.7,0,25,11.7,24.9,25.7   C224.3,326.7,212.5,337.9,197.5,337.4z M246.7,274.3c-3.6,4.4-7,6.8-13,2.3c-22.7-17.3-45.9-17.1-68.5,0.2c-5.8,4.4-9.1,2.3-13-2   c-5.7-6.2-0.3-9.4,3.6-12.4c13.2-10.1,28.2-15.7,47.5-15.6c13.7,0.4,28.1,5.7,40.7,15.8C247.8,265.8,250.8,269.3,246.7,274.3z    M270.2,251.1c-5.4,6.3-9.3,3.3-14.5-0.4c-38.5-26.8-73.2-26.5-111.4,1.2c-5.3,3.8-9,6.7-14.5,0.5c-6-6.8-0.8-10.3,3.5-14.1   c4.9-4.2,10.1-7.8,15.4-10.9c16-9.2,33.9-13.6,53-14.4c16.2,0.8,31.6,4.2,45.7,11.1c6.4,3.2,12.5,7.1,18.3,11.9   C270.4,239.9,277,243.2,270.2,251.1z M294.6,226.6c-6.9,8.5-11.3,2.9-16.8-1.6c-45.7-36.6-105.4-37-151.8-1.1   c-1.8,1.4-3.7,2.7-5.4,4.4c-4.8,4.8-9.2,6.1-14.6,0.3c-6.2-6.6-1.3-10.3,3.1-14.1c1.7-1.5,3.4-2.9,5.1-4.2   c3.4-2.7,6.9-5.3,10.4-7.7c23.1-15.5,48.9-23.4,77.9-22.9c26.4-0.4,50.3,6.5,71.7,20.1c3.3,2.1,6.5,4.3,9.7,6.8   c1.6,1.2,3.2,2.4,4.7,3.7C293.4,214.3,302,217.5,294.6,226.6z"/>
	<path class="st0" d="M114.1,210.3c3.4-2.7,6.9-5.3,10.4-7.7C121,205.1,117.5,207.6,114.1,210.3z"/>
	<path class="st0" d="M247.3,224.2c-14-7-29.4-10.3-45.7-11.1c-19.1,0.9-37,5.2-53,14.4c16-9.2,33.9-13.6,53-14.4   C217.9,213.9,233.3,217.2,247.3,224.2z"/>
</g>
</svg>